<svg width="44" height="52" viewBox="0 0 44 52" fill="none" xmlns="http://www.w3.org/2000/svg">
<path d="M18.8841 19.979H18.8403C18.6198 20.8796 18.3723 21.7733 18.0982 22.659L16.6551 26.9445H21.0848L19.6495 22.6771C19.3222 21.7159 19.1032 20.8371 18.8841 19.979ZM42.5431 29.7018C43.0088 28.4466 43.1824 27.1017 43.0507 25.7693C42.9189 24.4369 42.4854 23.152 41.7829 22.0122C42.221 19.5281 41.7013 17.8264 40.2238 16.9073C40.5434 14.1293 40.0898 12.3315 38.8632 11.5137C38.937 10.8351 38.8094 10.1497 38.4964 9.54304C38.1835 8.93635 37.6989 8.43515 37.1032 8.10186C37.0839 7.04443 36.6814 6.02995 35.9704 5.24695C35.2594 4.46396 34.2884 3.96569 33.2377 3.84475C32.4904 2.17488 30.6178 1.29099 27.62 1.19307C24.8438 -0.554105 22.6147 -0.382308 20.9328 1.70846C20.8555 1.16214 20.3186 0.779036 19.3222 0.559137C17.0971 0.200902 14.8168 0.63598 12.8798 1.78834C12.542 1.96607 12.1914 2.11853 11.831 2.24446C8.48099 3.77517 6.7278 5.41668 6.57147 7.16901C5.91693 7.66031 5.41606 8.32807 5.1276 9.09395C4.83913 9.85984 4.77504 10.6921 4.94284 11.4931C4.36228 11.8939 3.92803 12.4728 3.70578 13.1423C3.48354 13.8119 3.48539 14.5356 3.71106 15.2039C3.11825 15.6139 2.64915 16.1784 2.35474 16.8363C2.06033 17.4942 1.95189 18.2202 2.04119 18.9354C1.70917 19.3517 1.46493 19.831 1.3232 20.3443C1.18147 20.8576 1.1452 21.3943 1.21657 21.922C0.600431 22.515 0.192319 23.2912 0.0530148 24.1349C-0.0862895 24.9786 0.0506659 25.8448 0.443485 26.6044C0.0346063 28.1348 0.176907 29.7603 0.845489 31.1965C0.743715 33.8044 1.68175 36.346 3.45336 38.2625C4.26041 39.5379 4.92495 40.8981 5.43503 42.3186C6.2712 43.4926 7.22819 44.5757 8.29029 45.5501C9.46538 47.6941 10.7582 48.6605 12.1686 48.4492C12.5999 49.1943 13.2721 49.7702 14.0745 50.0822C14.8769 50.3942 15.7616 50.4235 16.5829 50.1654C18.3971 51.5655 19.6452 51.3869 20.3272 49.6294C20.9766 48.7103 21.5487 48.6811 22.0435 49.5418C23.1756 52.1359 25.7904 52.202 29.8877 49.7402C30.8143 49.8153 31.7407 49.592 32.5313 49.1028C33.3218 48.6136 33.9351 47.8843 34.2814 47.0215C34.7551 46.9588 35.2113 46.801 35.6225 46.5576C36.0338 46.3143 36.3917 45.9904 36.6747 45.6053C36.9577 45.2203 37.16 44.782 37.2695 44.3169C37.379 43.8517 37.3934 43.3693 37.3119 42.8984C37.6904 42.4818 38.0127 42.0175 38.2705 41.5172C40.6155 40.9124 41.904 38.9729 42.1359 35.6984C42.7676 34.8413 43.1415 33.8217 43.2136 32.7595C43.2858 31.6972 43.0531 30.6364 42.5431 29.7018ZM21.7677 2.31919C23.2349 0.401943 25.0087 0.349545 27.0891 2.162L27.1845 2.1285C29.4333 1.35198 31.305 2.2436 32.7997 4.80337C34.5571 5.04904 35.7597 6.34267 36.4074 8.68426C36.9486 8.9423 37.3803 9.38447 37.6253 9.93166C37.8703 10.4789 37.9127 11.0954 37.7448 11.6709L38.3916 12.4724C38.8639 13.1832 39.1914 13.9801 39.3554 14.8176C39.5195 15.6551 39.5168 16.5167 39.3477 17.3531V17.3866C38.8891 17.2852 38.4123 17.3015 37.9618 17.434C37.5112 17.5664 37.1014 17.8108 36.7707 18.1442L36.0543 17.0078C35.414 16.4738 34.5891 16.2137 33.7583 16.2837V15.8482C33.7579 14.4591 33.3339 13.1031 32.5429 11.9612C31.7519 10.8194 30.6314 9.94588 29.3311 9.45734C29.8854 9.08043 30.5649 8.93438 31.2251 9.05018C30.8437 9.00552 30.5611 8.58977 30.3773 7.80294C30.1589 7.67929 29.993 7.48017 29.911 7.24294C29.8289 7.00571 29.8362 6.74669 29.9315 6.51446C28.7994 4.56973 28.1904 4.14024 28.1045 5.22599C28.4367 5.74044 28.5789 6.35475 28.5065 6.96285C29.4651 7.52978 29.8516 7.97559 29.6661 8.30029L28.424 9.19707C27.9382 9.09023 27.4423 9.0358 26.9448 9.03472H25.1152C25.074 8.98318 25.0302 8.93164 24.9838 8.8801C23.4376 7.5504 22.7839 6.52477 23.0227 5.80323C22.9042 4.50788 23.6919 3.69099 25.3858 3.35255C26.298 3.06908 26.2121 2.84575 25.1281 2.68254C22.9841 3.08798 21.9885 4.26221 22.1414 6.20523L20.8529 6.38304C20.7235 5.67898 20.7379 4.95602 20.8951 4.25764C21.0523 3.55926 21.3491 2.89989 21.7677 2.31919ZM28.0426 20.6593C27.8878 20.6608 27.7344 20.631 27.5915 20.5715C27.4485 20.5121 27.3191 20.4244 27.211 20.3136C27.1029 20.2029 27.0183 20.0714 26.9624 19.9271C26.9065 19.7828 26.8803 19.6286 26.8856 19.4739C26.881 19.3146 26.9088 19.1561 26.9675 19.0079C27.0261 18.8597 27.1143 18.725 27.2266 18.6119C27.3389 18.4988 27.4731 18.4098 27.6209 18.3503C27.7687 18.2907 27.9271 18.2618 28.0864 18.2654C28.248 18.2614 28.4088 18.2902 28.5589 18.35C28.7091 18.4099 28.8457 18.4995 28.9603 18.6134C29.075 18.7274 29.1654 18.8634 29.2261 19.0132C29.2868 19.163 29.3166 19.3236 29.3136 19.4852C29.3107 19.6468 29.275 19.8062 29.2089 19.9537C29.1427 20.1012 29.0474 20.2338 28.9287 20.3435C28.8099 20.4532 28.6702 20.5377 28.5179 20.592C28.3656 20.6463 28.204 20.6692 28.0426 20.6593ZM29.0476 22.4632V33.0983H27.1252V22.4606L29.0476 22.4632ZM23.7726 8.73837C23.692 8.81558 23.6387 8.91686 23.6206 9.02699H21.2369C21.1268 8.23982 20.9762 7.45883 20.7859 6.68712L22.0332 6.50931C21.7841 7.6174 22.3639 8.36042 23.7726 8.73837ZM9.05049 4.79822L9.58908 4.85233C9.62344 4.64618 9.98764 4.28283 10.6817 3.76228L10.8595 3.96071L9.67669 5.15384H8.77991L9.05049 4.79822ZM8.42429 5.61253C8.82372 5.59707 9.47054 5.58161 10.3905 5.56615C10.4541 5.56615 11.2564 4.80853 12.7974 3.29328H13.555C13.5968 3.17968 13.6772 3.0844 13.7821 3.02414C13.8871 2.96387 14.0099 2.94247 14.129 2.96367C14.2482 2.98488 14.3561 3.04734 14.4338 3.14012C14.5115 3.23289 14.5541 3.35006 14.5541 3.47109C14.5541 3.59212 14.5115 3.70929 14.4338 3.80206C14.3561 3.89484 14.2482 3.9573 14.129 3.97851C14.0099 3.99971 13.8871 3.97831 13.7821 3.91804C13.6772 3.85778 13.5968 3.7625 13.555 3.6489H12.8206L10.5683 5.94496L8.15887 5.98104L8.42429 5.61253ZM7.79294 6.52477H11.6584L12.818 5.44245L13.5241 5.46049C13.5598 5.30991 13.6495 5.17768 13.7763 5.08892C13.903 5.00015 14.058 4.96104 14.2117 4.97901C14.3654 4.99697 14.5072 5.07076 14.61 5.18637C14.7129 5.30197 14.7698 5.45134 14.7698 5.60609C14.7698 5.76084 14.7129 5.91021 14.61 6.02581C14.5072 6.14142 14.3654 6.21521 14.2117 6.23317C14.058 6.25114 13.903 6.21203 13.7763 6.12326C13.6495 6.0345 13.5598 5.90227 13.5241 5.75169H12.867L11.7511 6.88812L7.59709 6.83916C7.65894 6.73608 7.72422 6.63129 7.79294 6.52477ZM7.22344 7.3932L14.109 7.37259L18.5079 3.09228H20.3427L20.2654 3.47109H18.5955L14.2637 7.70759L7.0482 7.64059L7.22344 7.3932ZM19.0774 8.66106H20.3221V8.98834L19.2011 8.97287L19.1521 9.02184H18.6883L19.0774 8.66106ZM18.3533 7.75655L17.0287 9.02699H16.5829L18.276 7.40609H20.103V7.74109L18.3533 7.75655ZM6.45035 8.66364L14.8435 8.64818L14.9723 8.53222C15.1269 8.37244 15.9859 7.59163 17.5493 6.18977L20.1133 6.21038V6.50931H17.5544L14.8538 9.01926L6.3112 8.96772C6.35243 8.87237 6.39624 8.76156 6.45035 8.66364ZM6.00196 9.91861L13.4055 9.90058C13.206 10.0147 13.0117 10.1376 12.8231 10.2691L5.92981 10.2536C5.95014 10.1412 5.9742 10.0295 6.00196 9.91861ZM4.90934 13.1862C5.38698 12.5757 5.90986 12.002 6.47354 11.4699H5.85765V11.1298L11.8542 11.0989C11.749 11.2044 11.6484 11.3144 11.5527 11.4287L6.92966 11.4674L5.06395 13.3537L5.13095 18.1855C5.26324 18.3023 5.98392 18.9577 7.29301 20.1517V20.7521L9.03245 22.3807L9.05565 24.7876L9.92665 25.6535V26.04L8.79795 24.9216L8.75414 22.4194L7.0147 20.814V20.1955L4.85007 18.2576L4.90934 13.1862ZM8.68972 39.033V38.5872H9.01442V39.033H8.68972ZM9.01442 39.1799V40.1488H8.69487V39.1696L9.01442 39.1799ZM8.66137 32.4128V31.9902H9.03245V32.4128H8.66137ZM6.53281 26.4549V25.0298L5.50203 23.963C5.42475 24.012 5.33581 24.0396 5.24434 24.0429C5.1819 24.0297 5.12447 23.9991 5.0787 23.9547C5.03294 23.9102 5.0007 23.8537 4.98575 23.7917C4.97079 23.7297 4.97371 23.6647 4.99419 23.6042C5.01466 23.5438 5.05184 23.4904 5.10142 23.4502C5.151 23.4101 5.21094 23.3848 5.27431 23.3773C5.33767 23.3698 5.40186 23.3804 5.45944 23.4079C5.51701 23.4354 5.56561 23.4787 5.5996 23.5327C5.63359 23.5867 5.65159 23.6492 5.6515 23.713C5.65251 23.7502 5.64548 23.7871 5.63088 23.8213L6.69259 24.852V26.3003C8.46295 28.0552 9.52723 29.1169 9.93954 29.5266V31.6165H9.72308L9.74369 30.8666H9.84677L9.87769 29.7663L6.53281 26.4549ZM8.46553 31.9902V32.4128H8.04806V31.9902H8.46553ZM8.05064 31.6268V30.8769H8.4578V31.6268H8.05064ZM7.91664 31.9902V32.4128H7.49402V31.9902H7.91664ZM7.34198 32.4128H6.97605V31.9902H7.3394L7.34198 32.4128ZM6.82659 30.8666V31.6165H6.3112V30.8666H6.53281C6.57973 30.6114 6.60729 30.3529 6.61528 30.0935C6.55883 30.1181 6.49714 30.1281 6.43583 30.1227C6.37452 30.1172 6.31556 30.0965 6.2643 30.0624C6.21305 30.0284 6.17116 29.982 6.14244 29.9276C6.11372 29.8731 6.09909 29.8124 6.09989 29.7508C6.09561 29.6997 6.102 29.6482 6.11864 29.5996C6.13529 29.551 6.16182 29.5065 6.19658 29.4687C6.23134 29.4309 6.27355 29.4007 6.32056 29.3801C6.36757 29.3595 6.41834 29.3488 6.46968 29.3488C6.52101 29.3488 6.57179 29.3595 6.6188 29.3801C6.66581 29.4007 6.70802 29.4309 6.74278 29.4687C6.77753 29.5065 6.80407 29.551 6.82072 29.5996C6.83736 29.6482 6.84374 29.6997 6.83947 29.7508C6.83876 29.8025 6.82768 29.8536 6.80687 29.901C6.78607 29.9483 6.75597 29.991 6.71835 30.0265C6.69251 30.3095 6.67446 30.593 6.66424 30.8769L6.82659 30.8666ZM5.89373 33.1369V33.5209H5.48915V33.1369H5.72365C5.85596 32.8233 6.05567 32.5426 6.30862 32.3149V31.9799H6.82401V32.4025H6.42974C6.20434 32.6125 6.01844 32.8613 5.88085 33.1369H5.89373ZM5.49173 36.8632V36.4122H5.88085V36.8683L5.49173 36.8632ZM5.89373 37.0127V37.4224H5.48915V37.0152L5.89373 37.0127ZM5.49173 36.2628V35.8762H5.88085V36.2653L5.49173 36.2628ZM5.49173 35.7268V35.3634H5.88085V35.7293L5.49173 35.7268ZM5.49173 35.2114V34.8042H5.88085V35.2139L5.49173 35.2114ZM5.49173 34.6547V34.2734H5.88085V34.6625L5.49173 34.6547ZM5.49173 34.1213V33.6807H5.88085V34.1342L5.49173 34.1213ZM8.26452 20.6258V19.6569C7.36185 19.3338 6.60666 18.6949 6.13854 17.8582L6.39624 17.7963C6.49636 17.9653 6.60921 18.1264 6.73382 18.2782H7.31621V18.5102H6.93997C7.16869 18.7472 7.42881 18.9518 7.71306 19.1183L7.72852 18.505H7.42702V18.2705H8.66395V18.4999H8.06094V19.2936C8.47107 19.4843 8.9134 19.5962 9.36488 19.6234V18.4895H8.80053V18.2576H9.95243V18.4844H9.72308V19.626L9.93696 19.6131V23.5558L9.888 20.6619H9.54269V19.9764H9.20769V20.6619H8.85722V21.2134L9.58134 22.0097C9.62515 23.5043 9.68185 24.3959 9.68185 24.3959L9.93954 24.6536V24.9757C9.6011 24.615 9.42501 24.4432 9.41127 24.4603C9.49262 23.6561 9.45529 22.8443 9.30046 22.0509C9.05133 21.7999 8.81972 21.5321 8.60726 21.2495V20.649L8.26452 20.6258ZM8.97318 16.0131C8.92535 16.0046 8.87622 16.0066 8.82927 16.0192C8.78231 16.0317 8.73867 16.0543 8.70142 16.0855C8.66417 16.1167 8.63421 16.1557 8.61366 16.1997C8.5931 16.2438 8.58245 16.2918 8.58245 16.3404C8.58245 16.389 8.5931 16.437 8.61366 16.481C8.63421 16.525 8.66417 16.564 8.70142 16.5952C8.73867 16.6264 8.78231 16.6491 8.82927 16.6616C8.87622 16.6741 8.92535 16.6762 8.97318 16.6676H9.05049L9.24892 16.8815C9.16075 16.9145 9.06731 16.9311 8.97318 16.9305C8.89105 16.9382 8.80822 16.9286 8.72999 16.9025C8.65176 16.8763 8.57985 16.8341 8.51887 16.7786C8.45789 16.723 8.40917 16.6553 8.37583 16.5799C8.3425 16.5044 8.32528 16.4229 8.32528 16.3404C8.32528 16.2579 8.3425 16.1763 8.37583 16.1008C8.40917 16.0254 8.45789 15.9577 8.51887 15.9022C8.57985 15.8466 8.65176 15.8044 8.72999 15.7783C8.80822 15.7521 8.89105 15.7426 8.97318 15.7502C9.11269 15.7472 9.24942 15.7895 9.36282 15.8708C9.47621 15.9521 9.56013 16.0681 9.60196 16.2012H9.92923V16.4589H9.60711C9.57173 16.6089 9.47929 16.7393 9.34942 16.8223L9.15099 16.6341C9.20662 16.6089 9.25427 16.5688 9.28879 16.5184C9.32331 16.468 9.34339 16.4091 9.34684 16.3481C9.34022 16.2547 9.29753 16.1675 9.2278 16.105C9.15807 16.0425 9.06677 16.0095 8.97318 16.0131ZM7.02243 15.4977H6.82916C6.37047 15.4977 6.05608 15.5106 5.91177 15.5235C5.91177 15.6575 5.89115 15.7812 5.89115 15.9306C5.88841 16.3705 5.96614 16.8072 6.1205 17.2191C7.8986 17.1985 9.21284 17.1959 9.86481 17.1959C9.86959 17.121 9.8907 17.048 9.92665 16.982V17.5232L9.89316 17.4433C7.94756 17.4433 6.62301 17.4742 6.23131 17.4845C6.26567 17.5567 6.30175 17.628 6.33954 17.6984L6.08185 17.7706C5.77814 17.2041 5.62048 16.5708 5.62315 15.9281C5.62194 15.287 5.77623 14.6553 6.07279 14.087C6.36936 13.5187 6.79934 13.0308 7.32587 12.6651C7.8524 12.2995 8.45977 12.067 9.09587 11.9877C9.73197 11.9083 10.3778 11.9845 10.9781 12.2095C10.3532 13.1957 9.9937 14.3266 9.93439 15.4926C8.67684 15.4874 7.70533 15.4883 7.01986 15.4951L7.02243 15.4977ZM10.0864 38.5897V39.0356H9.70504V38.5897H10.0864ZM10.0864 39.185V40.1514H9.70246V39.1696L10.0864 39.185ZM9.7205 32.4128V31.9902H9.92665V32.4128H9.7205ZM9.5865 31.9902V32.4128H9.16388V31.9902H9.5865ZM9.14842 39.1799H9.57104V40.1462H9.46796C9.59423 40.4426 9.72565 40.9193 9.83646 41.1126H11.2177L11.3672 41.311C10.9652 41.2938 10.4352 41.2835 9.77719 41.2801C9.58047 40.9295 9.43962 40.5505 9.35973 40.1565H9.14584L9.14842 39.1799ZM3.01012 18.0618L4.75987 19.9223V20.9815C5.17734 21.4247 5.44276 21.7082 5.5845 21.8782L5.79065 22.1359C6.20296 22.1514 6.87297 22.154 6.87297 22.154C7.23819 22.4953 7.56406 22.8765 7.84448 23.2904C7.89602 24.8675 7.90633 25.5323 7.90633 25.5323C8.63818 26.2865 9.30819 26.9737 9.91635 27.5939V27.8748C8.44749 26.4034 7.67956 25.6457 7.67956 25.6457C7.62029 24.0867 7.63575 23.3445 7.63575 23.3445C7.36219 23.0017 7.07417 22.6707 6.77247 22.3524C6.41366 22.3712 6.05412 22.3712 5.69531 22.3524L5.66696 22.3266L5.43503 22.0895C5.22874 21.8788 5.02851 21.6623 4.8346 21.4402L4.45837 21.0459L4.48156 20.0306L2.87612 18.438L3.01012 18.0618ZM5.26496 38.0254H4.35272V37.5847H5.26496V38.0254ZM5.26496 36.8735H4.35272V36.4251H5.26496V36.8735ZM5.26496 35.7371H4.35272V35.5258C4.15668 35.504 3.96155 35.4748 3.76775 35.4381C3.75897 35.4806 3.73832 35.5198 3.70819 35.551C3.67807 35.5822 3.6397 35.6043 3.59755 35.6146C3.55539 35.6248 3.51119 35.623 3.47006 35.6091C3.42893 35.5953 3.39256 35.5701 3.36519 35.5364C3.33782 35.5028 3.32055 35.462 3.31541 35.4189C3.31026 35.3759 3.31745 35.3322 3.33612 35.293C3.3548 35.2539 3.38421 35.2208 3.42092 35.1977C3.45764 35.1746 3.50016 35.1623 3.54355 35.1624C3.59498 35.1633 3.64466 35.1812 3.68478 35.2134C3.7249 35.2456 3.75318 35.2902 3.76517 35.3402C3.88543 35.366 4.08128 35.3986 4.35272 35.4381V35.3814H5.26496V35.7371ZM5.26496 34.6676H4.35272V34.4434C4.09502 34.3996 3.92752 34.3713 3.81156 34.3481C3.78658 34.4066 3.74082 34.4539 3.68309 34.4807C3.62535 34.5075 3.55973 34.512 3.49888 34.4933C3.43802 34.4747 3.38624 34.4341 3.3535 34.3795C3.32077 34.3249 3.3094 34.2601 3.32159 34.1976C3.33378 34.1352 3.36867 34.0794 3.41953 34.0411C3.47039 34.0028 3.53362 33.9847 3.59704 33.9903C3.66045 33.9958 3.71956 34.0247 3.76298 34.0712C3.8064 34.1178 3.83104 34.1788 3.83217 34.2424L4.34756 34.3275V34.2734H5.2598L5.26496 34.6676ZM5.26496 33.5312H4.35272V33.1472H5.26496V33.5312ZM5.15157 31.8845L4.89388 31.7376H3.96875L3.17763 32.6499C2.70727 32.6018 2.23324 32.6018 1.76288 32.6499L1.72938 31.1449L1.884 30.9903C1.62443 30.7498 1.4207 30.4554 1.28714 30.1277C1.15358 29.8001 1.09343 29.4471 1.11091 29.0937C1.03876 27.764 1.13583 26.9583 1.40211 26.6765C1.50175 26.5906 1.43046 26.247 1.18822 25.6457C1.04192 25.2784 0.982092 24.8824 1.01337 24.4883C1.04465 24.0941 1.1662 23.7125 1.36861 23.3729C1.42283 23.1408 1.52249 22.9219 1.66181 22.7286C1.80114 22.5353 1.97738 22.3715 2.18035 22.2467H2.19839V22.2287C2.02287 21.9809 1.93494 21.6817 1.94847 21.3784C1.962 21.075 2.07624 20.7848 2.27312 20.5537L3.16474 21.0691L3.14155 24.7696L5.30361 26.8311L3.81929 26.8002C3.79236 26.6155 3.6949 26.4484 3.54738 26.334C3.39985 26.2197 3.21375 26.1669 3.02816 26.1869C2.9344 26.1624 2.83627 26.1597 2.74131 26.179C2.64635 26.1984 2.55708 26.2392 2.48038 26.2984C2.40367 26.3577 2.34156 26.4337 2.29883 26.5207C2.2561 26.6077 2.23388 26.7033 2.23388 26.8002C2.23388 26.8971 2.2561 26.9927 2.29883 27.0797C2.34156 27.1667 2.40367 27.2427 2.48038 27.302C2.55708 27.3612 2.64635 27.402 2.74131 27.4214C2.83627 27.4407 2.9344 27.438 3.02816 27.4135C3.18995 27.4264 3.35167 27.388 3.49043 27.3038C3.62918 27.2197 3.73792 27.0939 3.80125 26.9445L5.32938 26.9729L5.30876 28.4778H4.45322C4.40723 28.3493 4.32085 28.2392 4.20703 28.164C4.09322 28.0887 3.95808 28.0523 3.82186 28.0603C3.74343 28.0459 3.66277 28.0488 3.58561 28.069C3.50845 28.0892 3.43667 28.1261 3.37537 28.1772C3.31407 28.2282 3.26475 28.2921 3.2309 28.3643C3.19705 28.4365 3.1795 28.5153 3.1795 28.5951C3.1795 28.6748 3.19705 28.7536 3.2309 28.8258C3.26475 28.898 3.31407 28.9619 3.37537 29.0129C3.43667 29.064 3.50845 29.1009 3.58561 29.1211C3.66277 29.1413 3.74343 29.1442 3.82186 29.1298C3.96583 29.1398 4.10879 29.0992 4.22598 29.015C4.34316 28.9307 4.42719 28.8082 4.46352 28.6685H5.33969C5.31735 29.7766 5.30705 30.3341 5.30876 30.3409L4.44806 30.3177C4.39423 30.1802 4.29805 30.0634 4.17343 29.9842C4.04881 29.905 3.90222 29.8675 3.75486 29.8771C3.64539 29.8999 3.54462 29.9533 3.46419 30.031C3.38376 30.1087 3.32696 30.2076 3.30034 30.3162C3.27372 30.4248 3.27837 30.5387 3.31376 30.6448C3.34914 30.7509 3.41382 30.8448 3.50032 30.9157C3.58682 30.9866 3.6916 31.0315 3.80257 31.0454C3.91354 31.0593 4.02617 31.0414 4.12744 30.994C4.22871 30.9465 4.31449 30.8714 4.37487 30.7773C4.43526 30.6832 4.46778 30.5739 4.46868 30.462L5.32938 30.4852V31.3434L6.13081 32.1448L5.84219 32.4463L5.15157 31.8845ZM7.47082 40.86C7.47053 40.7927 7.49422 40.7274 7.53767 40.676C7.58111 40.6245 7.64146 40.5902 7.7079 40.5791V40.1488H7.49402V39.2958L7.35744 39.2572V40.1488H6.93997V39.1773H7.11778C6.99603 39.1305 6.87801 39.0745 6.76474 39.0098V39.033H6.29573V38.6774C6.07693 38.4922 5.89055 38.2719 5.74427 38.0254H5.48657V37.5822H5.88085V38.0022C6.05656 38.2121 6.24872 38.4078 6.45551 38.5872H6.76216V38.8294L6.93482 38.9479V38.5872H7.34455V39.033H7.08428C7.17018 39.0845 7.25608 39.1326 7.34198 39.1773L7.47855 39.2417V39.1696H7.88314V40.1411H7.81613V40.5791C7.86685 40.5935 7.91255 40.6218 7.94811 40.6607C7.98366 40.6996 8.00766 40.7477 8.01741 40.7995C8.02715 40.8513 8.02225 40.9048 8.00327 40.954C7.98429 41.0031 7.95196 41.046 7.90993 41.0779C7.86791 41.1097 7.81784 41.1292 7.76536 41.1341C7.71287 41.139 7.66005 41.1292 7.61283 41.1058C7.56561 41.0824 7.52586 41.0462 7.49804 41.0014C7.47022 40.9567 7.45544 40.905 7.45536 40.8523L7.47082 40.86ZM9.79008 45.831V43.4009H8.29029C8.1685 43.3916 8.05397 43.3393 7.96713 43.2534C7.88028 43.1675 7.82677 43.0536 7.81613 42.9319V42.3856C7.83675 42.0377 7.98621 41.8702 8.26195 41.9192H10.1844C10.3305 42.0234 10.4505 42.1601 10.5348 42.3186C10.8118 42.341 11.0902 42.341 11.3672 42.3186L11.6455 42.0609L12.0372 42.0454C12.4493 42.4376 12.908 42.7777 13.403 43.0582H12.7716C12.7494 43.1563 12.6914 43.2426 12.6089 43.3002C12.5265 43.3578 12.4256 43.3827 12.3258 43.37V44.4678H12.0423L12.0604 43.3648C11.6893 43.3184 11.4883 43.1587 11.4574 42.8855H10.3312C10.3693 42.7573 10.3648 42.6201 10.3183 42.4947C10.2719 42.3693 10.186 42.2622 10.0735 42.1897H8.3341C8.14513 42.1605 8.04892 42.2593 8.04548 42.4861V42.8752C8.10782 42.9783 8.20137 43.0589 8.31258 43.1052C8.42378 43.1515 8.54686 43.1612 8.66395 43.1329C9.13736 43.1406 9.61059 43.1087 10.0787 43.0376C10.1019 44.5451 10.0967 45.4341 10.0967 45.4341L11.009 45.4109V42.9938L11.344 42.9474V45.4109L12.014 45.4341V44.7306H12.3232V45.4625H13.0705V45.1068L14.0755 45.13L14.042 46.2639L13.0705 46.2433V45.8181L9.79008 45.831ZM13.6555 49.0238C13.4928 49.0238 13.3368 48.9592 13.2218 48.8442C13.1068 48.7292 13.0422 48.5732 13.0422 48.4105C13.0422 48.2478 13.1068 48.0918 13.2218 47.9768C13.3368 47.8618 13.4928 47.7972 13.6555 47.7972C13.8038 47.7958 13.9472 47.85 14.0575 47.9492L13.8745 48.1373C13.8125 48.0877 13.7355 48.0606 13.656 48.0605C13.5766 48.0603 13.4995 48.0872 13.4373 48.1367C13.3751 48.1861 13.3316 48.2552 13.3139 48.3327C13.2961 48.4101 13.3052 48.4913 13.3397 48.5629C13.3741 48.6345 13.4319 48.6922 13.5034 48.7267C13.575 48.7612 13.6562 48.7703 13.7336 48.7526C13.8111 48.7349 13.8802 48.6914 13.9297 48.6292C13.9792 48.5671 14.0061 48.4899 14.006 48.4105C14.0066 48.3549 13.9933 48.2999 13.9673 48.2507L14.1683 48.0729C14.2294 48.1656 14.2642 48.2732 14.269 48.3841C14.2738 48.495 14.2484 48.6051 14.1955 48.7028C14.1426 48.8004 14.0642 48.8818 13.9686 48.9383C13.8731 48.9949 13.7665 49.0244 13.6555 49.0238ZM17.2967 49.9154C17.4857 49.5512 17.3371 49.3872 16.8509 49.4232C16.8509 49.4928 16.8355 49.4026 16.7839 49.1655C17.4728 49.0607 17.7778 49.3279 17.6987 49.967L17.2967 49.9154ZM19.8737 49.4L17.039 46.6943C16.9904 46.7076 16.94 46.7136 16.8896 46.7123C16.7885 46.7143 16.689 46.6865 16.6035 46.6324L16.7659 46.4211C16.8209 46.4485 16.8834 46.4572 16.9438 46.446C17.0043 46.4348 17.0594 46.4042 17.101 46.3589C17.1426 46.3136 17.1683 46.256 17.1742 46.1948C17.1802 46.1336 17.1661 46.0722 17.1341 46.0197C17.1021 45.9672 17.0539 45.9265 16.9967 45.9038C16.9396 45.8812 16.8766 45.8777 16.8173 45.8939C16.758 45.9101 16.7056 45.9452 16.668 45.9938C16.6303 46.0424 16.6095 46.1019 16.6087 46.1634C16.6068 46.2275 16.6288 46.2899 16.6705 46.3386L16.4979 46.5396C16.4484 46.4905 16.4094 46.4318 16.3833 46.3671C16.3571 46.3024 16.3444 46.2331 16.3458 46.1634C16.3407 46.0887 16.351 46.0137 16.376 45.9431C16.4011 45.8725 16.4404 45.8078 16.4915 45.7531C16.5426 45.6983 16.6045 45.6547 16.6732 45.6248C16.7419 45.595 16.816 45.5796 16.8909 45.5796C16.9658 45.5796 17.0399 45.595 17.1086 45.6248C17.1773 45.6547 17.2391 45.6983 17.2902 45.7531C17.3413 45.8078 17.3806 45.8725 17.4057 45.9431C17.4307 46.0137 17.441 46.0887 17.4359 46.1634C17.4375 46.27 17.4059 46.3744 17.3457 46.4623L20.103 49.1784L19.8737 49.4ZM20.2525 48.5187C20.1049 48.5187 19.9633 48.4601 19.8589 48.3557C19.7545 48.2513 19.6959 48.1097 19.6959 47.9621C19.693 47.8462 19.7293 47.7327 19.7989 47.64C19.3351 47.1418 18.0853 45.8971 16.0495 43.906C16.1869 43.9215 16.3269 43.9318 16.4695 43.9369L19.9587 47.4879C20.0461 47.4314 20.1485 47.4027 20.2525 47.4055C20.4001 47.4055 20.5417 47.4641 20.6461 47.5685C20.7505 47.6729 20.8091 47.8145 20.8091 47.9621C20.8091 48.1097 20.7505 48.2513 20.6461 48.3557C20.5417 48.4601 20.4001 48.5187 20.2525 48.5187ZM21.2292 46.9365L20.6287 46.9571L20.6493 45.4419H21.4972C21.4268 45.9429 21.327 46.4394 21.1982 46.9288L21.2292 46.9365ZM21.5152 28.4443H16.2634L14.7327 33.1034H12.7665L17.7709 18.2963H20.0644L25.0894 33.1034H23.0562L21.5152 28.4443ZM38.1932 40.9013C37.7381 40.7201 37.3624 40.3828 37.1334 39.9498C36.9044 39.5168 36.837 39.0164 36.9434 38.5382C37.1392 36.8202 36.4409 36.1331 34.8483 36.4767C36.6488 38.4334 36.2029 39.7262 33.5109 40.355C34.1981 41.0421 35.045 40.775 36.0518 39.5535C36.2938 40.3431 36.7134 41.0668 37.2784 41.6692L36.5208 42.7386C36.5997 43.115 36.5951 43.5042 36.5073 43.8787C36.4194 44.2531 36.2505 44.6037 36.0124 44.9057C35.7742 45.2077 35.4727 45.4538 35.1291 45.6266C34.7855 45.7994 34.4082 45.8947 34.0237 45.9057C33.8244 46.1651 33.839 46.0457 34.0675 45.5475C33.906 44.4618 33.3417 43.9275 32.3745 43.9446C32.033 44.1742 31.6326 44.3005 31.2213 44.3083C30.8099 44.316 30.405 44.205 30.0552 43.9885C28.9952 43.5383 28.357 43.7763 28.1405 44.7023C27.3185 45.8061 26.1067 46.5553 24.7518 46.7973C25.4264 47.0919 26.1859 47.1273 26.8849 46.8967C27.5838 46.6661 28.1732 46.1857 28.54 45.5475C28.071 44.2796 28.814 44.2058 30.769 45.3259C32.6502 44.6851 33.6011 45.1008 33.6217 46.5731C33.2049 47.2214 32.6402 47.7614 31.974 48.1489C31.3079 48.5364 30.5593 48.7603 29.7898 48.8022C29.2744 49.8622 27.5796 50.4274 24.7055 50.4978C24.2753 50.4754 23.8543 50.3644 23.469 50.1718C23.0838 49.9791 22.7424 49.709 22.4664 49.3783C22.1903 49.0476 21.9856 48.6634 21.8649 48.2499C21.7442 47.8364 21.7103 47.4024 21.7652 46.9751C22.0368 46.513 22.1767 45.9853 22.1699 45.4493C22.1631 44.9133 22.0098 44.3894 21.7265 43.9343H26.968C28.7378 43.9346 30.4384 43.2468 31.7103 42.0162C32.9822 40.7857 33.7259 39.1087 33.784 37.3399L33.8459 37.2575L33.784 37.242V32.3329C34.2992 32.1617 34.758 31.8535 35.1112 31.4413C35.6618 31.1588 36.2989 31.0952 36.8944 31.2635C37.7208 33.5089 37.171 34.5491 35.2452 34.3842C35.9616 35.1418 36.6007 35.0971 37.1624 34.2502C37.8982 34.065 38.6699 34.0789 39.3985 34.2904C40.1272 34.5019 40.7864 34.9033 41.3087 35.4536C41.1944 36.5301 40.8552 37.5706 40.3132 38.5077C39.7712 39.4448 39.0384 40.2576 38.1623 40.8935L38.1932 40.9013ZM41.5793 34.8815C41.1461 34.3026 40.5501 33.8662 39.8675 33.6279C39.1849 33.3897 38.4467 33.3605 37.7474 33.5441C38.4792 33.039 38.5385 32.2513 37.9252 31.181C36.8652 30.7653 36.2407 30.2903 36.0518 29.756C36.3704 29.1753 36.5666 28.5354 36.6283 27.8758C36.6899 27.2163 36.6156 26.5511 36.41 25.9215C36.8841 26.0933 37.1813 26.0074 37.3016 25.6638C36.9408 25.2085 36.5242 25.2532 36.0518 25.7978C36.2987 27.271 35.9803 28.7832 35.1601 30.0317C34.7977 30.612 34.3332 31.1218 33.7892 31.5366V22.2983C34.741 22.1425 35.7161 22.3634 36.5079 22.9142C36.2456 22.5344 35.8781 22.2394 35.4506 22.0654C35.023 21.8915 34.554 21.8461 34.101 21.9349L34.3252 20.8655C34.1483 21.0613 33.9696 21.2503 33.7892 21.4324V18.4122C34.1192 18.0545 34.3734 17.6338 34.5365 17.1753L35.9641 17.2191C36.1462 17.2191 36.4134 17.6057 36.7656 18.3787C39.3116 16.1651 38.2679 19.3425 39.4765 17.8247L39.3657 17.5232C39.4396 17.5575 39.5126 17.5945 39.5848 17.634L39.6389 17.5773V17.5541C40.0065 17.5696 40.284 17.9338 40.4712 18.6467C40.9496 19.9276 41.0725 21.314 40.8269 22.659C42.0741 23.7414 42.0741 24.767 40.8269 25.7359L41.8963 25.9575C42.1149 27.3007 42.0079 28.6766 41.5845 29.9699C41.9818 30.7273 42.1864 31.571 42.1801 32.4263C42.1738 33.2817 41.9568 34.1223 41.5484 34.8738L41.5793 34.8815Z" fill="black"/>
</svg>
