<svg width="36" height="36" viewBox="0 0 36 36" fill="none" xmlns="http://www.w3.org/2000/svg">
<path d="M28.4098 25.9039L36 33.4924L33.4924 36L25.9039 28.4098C23.0804 30.6732 19.5684 31.9043 15.9496 31.8992C7.14542 31.8992 0 24.7538 0 15.9496C0 7.14542 7.14542 0 15.9496 0C24.7538 0 31.8992 7.14542 31.8992 15.9496C31.9043 19.5684 30.6732 23.0804 28.4098 25.9039ZM24.8548 24.589C27.1034 22.2757 28.3593 19.1756 28.3548 15.9496C28.3548 9.09658 22.8026 3.54435 15.9496 3.54435C9.09658 3.54435 3.54435 9.09658 3.54435 15.9496C3.54435 22.8026 9.09658 28.3548 15.9496 28.3548C19.1756 28.3593 22.2757 27.1034 24.589 24.8548L24.8548 24.589Z" fill="black"/>
</svg>
