<svg width="40" height="40" viewBox="0 0 40 40" fill="none" xmlns="http://www.w3.org/2000/svg">
<path d="M14 3V37M2 14.8C2 10.32 2 8.08 2.872 6.368C3.63898 4.86277 4.86277 3.63898 6.368 2.872C8.08 2 10.32 2 14.8 2H25.2C29.68 2 31.92 2 33.632 2.872C35.1372 3.63898 36.361 4.86277 37.128 6.368C38 8.08 38 10.32 38 14.8V25.2C38 29.68 38 31.92 37.128 33.632C36.361 35.1372 35.1372 36.361 33.632 37.128C31.92 38 29.68 38 25.2 38H14.8C10.32 38 8.08 38 6.368 37.128C4.86277 36.361 3.63898 35.1372 2.872 33.632C2 31.92 2 29.68 2 25.2V14.8Z" stroke="black" stroke-width="3" stroke-linecap="round" stroke-linejoin="round"/>
</svg>
