<svg width="70" height="70" viewBox="0 0 70 70" fill="none" xmlns="http://www.w3.org/2000/svg">
<path d="M11.5333 3H58.4667C59.5873 3 60.6969 3.22072 61.7322 3.64956C62.7675 4.0784 63.7083 4.70696 64.5006 5.49936C65.293 6.29175 65.9216 7.23246 66.3504 8.26777C66.7793 9.30308 67 10.4127 67 11.5333V58.4667C67 60.7298 66.101 62.9003 64.5006 64.5006C62.9003 66.101 60.7298 67 58.4667 67H11.5333C9.27015 67 7.09966 66.101 5.49935 64.5006C3.89904 62.9003 3 60.7298 3 58.4667V11.5333C3 9.27015 3.89904 7.09967 5.49935 5.49936C7.09966 3.89905 9.27015 3 11.5333 3Z" stroke="#4A4A4A" stroke-opacity="0.7" stroke-width="5.33333" stroke-miterlimit="10" stroke-linejoin="round"/>
<path fill-rule="evenodd" clip-rule="evenodd" d="M47.606 49.684L27.0345 35.9697L47.606 22.2554L45.1125 18.5151L18.9306 35.9697L45.1125 53.4242L47.606 49.684Z" fill="#4A4A4A" fill-opacity="0.7"/>
<path d="M21.1792 35.9692L44.7671 51.6948L45.8774 50.0288L26.3433 37.0073L24.7866 35.9692L26.3433 34.9321L45.8774 21.9097L44.7671 20.2437L21.1792 35.9692Z" stroke="#4A4A4A" stroke-opacity="0.7" stroke-width="2.49351"/>
</svg>
