<svg width="70" height="70" viewBox="0 0 70 70" fill="none" xmlns="http://www.w3.org/2000/svg">
<path d="M58.4667 3H11.5333C10.4127 3 9.30308 3.22072 8.26777 3.64956C7.23246 4.0784 6.29175 4.70696 5.49936 5.49936C4.70696 6.29175 4.0784 7.23246 3.64956 8.26777C3.22072 9.30308 3 10.4127 3 11.5333V58.4667C3 60.7298 3.89905 62.9003 5.49936 64.5006C7.09967 66.101 9.27015 67 11.5333 67H58.4667C60.7298 67 62.9003 66.101 64.5006 64.5006C66.101 62.9003 67 60.7298 67 58.4667V11.5333C67 9.27015 66.101 7.09967 64.5006 5.49936C62.9003 3.89905 60.7298 3 58.4667 3Z" stroke="#7D7E7F" stroke-width="5.33333" stroke-miterlimit="10" stroke-linejoin="round"/>
<path d="M48.8203 35.9692L25.2324 51.6948L24.1221 50.0288L43.6562 37.0073L45.2129 35.9692L43.6562 34.9321L24.1221 21.9097L25.2324 20.2437L48.8203 35.9692Z" fill="black" stroke="#7D7E7F" stroke-width="2.49351"/>
</svg>
